<?xml version="1.0" encoding="UTF-8"?>
<svg width="115px" height="37px" viewBox="0 0 115 37" version="1.1" xmlns="http://www.w3.org/2000/svg" xmlns:xlink="http://www.w3.org/1999/xlink">
    <!-- Generator: Sketch 41.2 (35397) - http://www.bohemiancoding.com/sketch -->
    <title>Franklin - Logo - Horizontal Stacked - White</title>
    <desc>Created with Sketch.</desc>
    <defs>
        <polygon id="path-1" points="57.4044292 37 0.0315068493 37 0.0315068493 0.527514286 57.4044292 0.527514286 114.777352 0.527514286 114.777352 37"></polygon>
    </defs>
    <g id="Symbols" stroke="none" stroke-width="1" fill="none" fill-rule="evenodd">
        <g id="Franklin---Logo---Horizontal-Stacked---White">
            <g>
                <path d="M44,16.4926842 L43.6461664,16.4926842 C43.3383907,14.37776 42.2460038,14.3325352 41.0615009,14.3325352 L39.076673,14.3325352 L39.076673,18.5772812 L40.0308859,18.5772812 C41.076673,18.5772812 41.5692224,18.4565044 41.5692224,17.0513434 L41.9382281,17.0513434 L41.9382281,20.5714286 L41.5692224,20.5714286 C41.5692224,18.9092844 40.9536711,18.9092844 40.0308859,18.9092844 L39.076673,18.9092844 L39.076673,21.4019686 C39.076673,23.3354616 39.076673,23.6679968 40.3847196,23.6679968 L40.7228393,23.6679968 L40.7228393,24 L36,24 L36,23.6679968 L36.3077757,23.6679968 C37.6001084,23.6679968 37.6001084,23.320564 37.6001084,21.4019686 L37.6001084,15.933493 C37.6001084,14.37776 37.4305066,14.3325352 36.06123,14.3325352 L36.06123,14 L43.9073422,14 L44,16.4926842" id="Fill-1" fill="#FFFFFF"></path>
                <path d="M47.8774271,18.8882479 L48.6606292,18.8882479 C50.3845768,18.8882479 51.1251317,18.1727706 51.1251317,16.6525781 C51.1251317,14.7896074 50.1136421,14.3575914 48.461442,14.3575914 C48.2050574,14.3575914 48.0625659,14.3722894 47.8774271,14.3875123 L47.8774271,18.8882479 Z M52.6493904,16.5481174 C52.6493904,17.9491511 51.5526065,18.8882479 49.8291606,19.0373275 C50.2561337,19.0672484 51.0538859,20.0656621 51.296222,20.4084403 L52.4928503,22.0477915 C53.0909137,22.8677296 53.8746174,23.6724447 55,23.6724447 L55,24 L52.4642517,24 C52.2219156,23.8063014 51.8516382,23.5086671 51.2109277,22.5842683 L49.7293161,20.4530592 C48.8889168,19.2457241 48.6039336,19.2457241 48.0766143,19.2457241 L47.8774271,19.2457241 L47.8774271,21.4367749 C47.8774271,23.3443645 47.8628769,23.6724447 49.0595053,23.6724447 L49.5155787,23.6724447 L49.5155787,24 L45,24 L45,23.6724447 L45.2990317,23.6724447 C46.5097085,23.6724447 46.5097085,23.3443645 46.5097085,21.4367749 L46.5097085,16.5932612 C46.5097085,14.4169083 46.409864,14.4620522 45.0712458,14.4620522 L45.0712458,14.1339719 C46.0822337,14.0594321 47.6350911,14.0001152 48.5612864,14.0001152 C49.1733982,14.0001152 52.6493904,13.9402734 52.6493904,16.5481174 L52.6493904,16.5481174 Z" id="Fill-2" fill="#FFFFFF"></path>
                <path d="M61.184346,20.0417213 L59.4737384,15.8454846 L57.7780639,20.0417213 L61.184346,20.0417213 Z M57.6318229,20.3693066 L57.061277,21.8127784 C56.9737384,22.0507364 56.8274974,22.5418523 56.8274974,22.7504586 C56.8274974,23.2263745 57.1637487,23.6729388 57.8800206,23.6729388 L57.8800206,24 L55,24 L55,23.6729388 C55.4093718,23.658263 56.0087539,23.4051051 56.3887745,22.4973007 L59.8686921,14 L60.146241,14 L63.6987642,22.5565281 C63.9181256,23.0775198 64.2255407,23.6729388 65,23.6729388 L65,24 L61.184346,24 L61.184346,23.6729388 C61.8712667,23.6729388 62.3831102,23.6876147 62.3831102,23.1372713 C62.3831102,22.9732166 62.2955716,22.7651344 62.1930999,22.5271765 L61.3161689,20.3693066 L57.6318229,20.3693066 L57.6318229,20.3693066 Z" id="Fill-3" fill="#FFFFFF"></path>
                <path d="M67.812159,14.7975652 L67.812159,21.799282 C67.812159,22.8330472 68.0055534,23.4095 69.4163094,23.4537225 L69.4163094,23.7783674 L66,23.7783674 L66,23.4537225 C67.5632307,23.3356225 67.4799299,22.6707247 67.4799299,21.799282 L67.4799299,16.4374382 C67.4799299,14.4578326 67.3834762,14.3251652 66.1247077,14.3251652 L66.1247077,14 L68.8215121,14 L74.2433749,21.6957494 L74.2433749,15.8021955 C74.2433749,14.9749753 74.1464341,14.3397326 72.6806313,14.3251652 L72.6806313,14 L76,14 L76,14.3251652 C74.6584178,14.4578326 74.5756041,14.9895427 74.5756041,15.9057281 L74.5756041,24 L74.2847818,24 L67.812159,14.7975652" id="Fill-4" fill="#FFFFFF"></path>
                <path d="M84.4863651,16.2809258 C84.9483138,15.8882682 85.5382385,15.3897313 85.5382385,14.9816441 C85.5382385,14.3623304 84.756911,14.3474328 84.4223771,14.3325352 L84.4223771,14 L88.3907573,14 L88.3907573,14.3325352 C87.976519,14.3474328 87.2911736,14.302208 85.8087843,15.6009577 L83.0359699,18.0180899 L87.7531222,22.5347167 C88.4227513,23.16946 88.948688,23.6679968 90,23.6679968 L90,24 L84.5183591,24 L84.5183591,23.6679968 C85.3468357,23.6679968 86.0478975,23.6679968 86.0478975,23.16946 C86.0478975,22.8672519 85.3468357,22.1872839 84.9640301,21.8249534 L81.9521025,18.9396116 L81.187614,19.5743549 L81.187614,21.4019686 C81.187614,23.4562384 81.187614,23.6679968 82.7491464,23.6679968 L82.7491464,24 L78,24 L78,23.6679968 L78.3345339,23.6679968 C79.6732307,23.6679968 79.6575144,23.3354616 79.6575144,21.4019686 L79.6575144,16.4926842 C79.6575144,14.3926576 79.6255204,14.3325352 78.1436924,14.3325352 L78.1436924,14 L82.8131344,14 L82.8131344,14.3325352 C81.2353244,14.3325352 81.187614,14.3325352 81.187614,16.4926842 L81.187614,19.0907156 L84.4863651,16.2809258" id="Fill-5" fill="#FFFFFF"></path>
                <path d="M97.9362693,24 L89,24 L89,23.6679968 L89.3175353,23.6679968 C90.6508479,23.6679968 90.6508479,23.3354616 90.6508479,21.4019686 L90.6508479,16.4926842 C90.6508479,14.4682096 90.6189825,14.3325352 89.2381514,14.3325352 L89,14.3325352 L89,14 L94.0475806,14 L94.0475806,14.3325352 L93.5874899,14.3325352 C92.2066588,14.3325352 92.1747935,14.4533121 92.1747935,16.4926842 L92.1747935,21.7190742 C92.1747935,23.4562384 92.1747935,23.6679968 93.7462575,23.6679968 L94.5395366,23.6679968 C96.3648053,23.6679968 96.920492,23.3354616 97.6505994,21.0545358 L98,21.0545358 L97.9362693,24" id="Fill-6" fill="#FFFFFF"></path>
                <path d="M98,14 L103,14 L103,14.3325352 L102.768486,14.3325352 C101.328085,14.3325352 101.294845,14.4533121 101.294845,16.4926842 L101.294845,21.4019686 C101.294845,23.3354616 101.294845,23.6679968 102.685678,23.6679968 L103,23.6679968 L103,24 L98,24 L98,23.6679968 L98.3143224,23.6679968 C99.7051551,23.6679968 99.7051551,23.3354616 99.7051551,21.4019686 L99.7051551,16.4926842 C99.7051551,14.4682096 99.6724983,14.3325352 98.2315139,14.3325352 L98,14.3325352 L98,14" id="Fill-7" fill="#FFFFFF"></path>
                <path d="M104.81176,14.7975652 L104.81176,21.799282 C104.81176,22.8330472 105.005164,23.4095 106.415989,23.4537225 L106.415989,23.7783674 L103,23.7783674 L103,23.4537225 C104.56282,23.3356225 104.480002,22.6707247 104.480002,21.799282 L104.480002,16.4374382 C104.480002,14.4578326 104.383056,14.3251652 103.124227,14.3251652 L103.124227,14 L105.82165,14 L111.243289,21.6957494 L111.243289,15.8021955 C111.243289,14.9749753 111.146344,14.3397326 109.68047,14.3251652 L109.68047,14 L113,14 L113,14.3251652 C111.658352,14.4578326 111.575535,14.9895427 111.575535,15.9057281 L111.575535,24 L111.284698,24 L104.81176,14.7975652" id="Fill-8" fill="#FFFFFF"></path>
                <path d="M45,28 L45,28.2939854 C43.8042212,28.3872962 43.8042212,29.0685779 43.8042212,30.1630129 L43.8042212,33.1006183 C43.8042212,34.262507 43.8042212,34.8369871 43.4834785,35.4777965 C43.0521885,36.3322091 42.0536301,37 40.5002595,37 C38.8109106,37 38.0095727,36.2119168 37.6888299,35.7048904 C37.281933,35.0505902 37.281933,34.4362001 37.281933,32.940416 L37.281933,30.2299044 C37.281933,28.440697 37.269996,28.2939854 36.1847644,28.2939854 L36,28.2939854 L36,28 L39.7233147,28 L39.7233147,28.2939854 C38.5026238,28.2939854 38.4657748,28.2939854 38.4657748,30.2034851 L38.4657748,32.9808881 C38.4657748,34.2490163 38.4657748,34.9567173 38.7740615,35.5177066 C39.0574361,36.0387858 39.7108587,36.559303 40.7836342,36.559303 C41.5974281,36.559303 42.6328355,36.252389 43.1632547,35.3575042 C43.5083905,34.7835863 43.5083905,34.1691962 43.5083905,33.0472175 L43.5083905,30.0432827 C43.5083905,28.9747049 43.5083905,28.3872962 42.2627876,28.2939854 L42.2627876,28 L45,28" id="Fill-9" fill="#FFFFFF"></path>
                <path d="M47.6307424,28.7180077 L47.6307424,35.0194628 C47.6307424,35.9501306 47.8047162,36.4683497 49.0749345,36.5080836 L49.0749345,36.800771 L46,36.800771 L46,36.5080836 C47.4064629,36.4017535 47.3320524,35.803507 47.3320524,35.0194628 L47.3320524,30.193757 C47.3320524,28.4118891 47.2450655,28.2926875 46.1121397,28.2926875 L46.1121397,28 L48.5393886,28 L53.4190393,34.9260042 L53.4190393,29.6218132 C53.4190393,28.8775028 53.3320524,28.3061186 52.0125764,28.2926875 L52.0125764,28 L55,28 L55,28.2926875 C53.7926638,28.4118891 53.7177293,28.890934 53.7177293,29.7147121 L53.7177293,37 L53.4562445,37 L47.6307424,28.7180077" id="Fill-10" fill="#FFFFFF"></path>
                <path d="M55,28 L59,28 L59,28.2993132 L58.8143295,28.2993132 C57.662392,28.2993132 57.6356287,28.4080504 57.6356287,30.2434185 L57.6356287,34.6615795 C57.6356287,36.4019458 57.6356287,36.7006868 58.7485364,36.7006868 L59,36.7006868 L59,37 L55,37 L55,36.7006868 L55.2514636,36.7006868 C56.3643713,36.7006868 56.3643713,36.4019458 56.3643713,34.6615795 L56.3643713,30.2434185 C56.3643713,28.4212133 56.337608,28.2993132 55.1851129,28.2993132 L55,28.2993132 L55,28" id="Fill-11" fill="#FFFFFF"></path>
                <path d="M64.437817,37 L61.3092531,29.2874705 C61.0594718,28.6772631 60.8600665,28.2922513 60,28.2922513 L60,28 L63.5525625,28 L63.5525625,28.2922513 C62.8919013,28.2922513 62.4311702,28.3185148 62.4311702,28.7962871 C62.4311702,28.9823668 62.4684275,29.0488638 62.7176841,29.6724823 L65.0858842,35.5130386 L66.9933532,30.6548491 C67.4792723,29.4204644 67.4792723,29.2477959 67.4792723,29.0751273 C67.4792723,28.3716006 66.8563932,28.2922513 66.4822459,28.2922513 L66.4822459,28 L69,28 L69,28.2922513 C68.3771209,28.2922513 68.0281616,28.8761952 67.753717,29.5663107 L64.8240336,37 L64.437817,37" id="Fill-12" fill="#FFFFFF"></path>
                <path d="M75,34.1991606 L74.8507865,37 L69,37 L69,36.7006868 L69.1388764,36.7006868 C70.0570787,36.7006868 70.0570787,36.4019458 70.0570787,34.6615795 L70.0570787,30.2434185 C70.0570787,28.4624189 70.0462921,28.2993132 69.1388764,28.2993132 L69.1388764,28 L74.1995506,28 L74.3595506,30.2434185 L74.1141573,30.2434185 C73.7725843,28.3262114 73.2597753,28.2993132 72.0642697,28.2993132 L71.0817978,28.2993132 L71.0817978,32.0919496 L71.84,32.0919496 C72.832809,32.0919496 72.8970787,31.7794735 72.8970787,30.7327356 L73.1424719,30.7327356 L73.1424719,33.8185807 L72.8970787,33.8185807 C72.8970787,32.4593667 72.6620225,32.3912629 71.8507865,32.3912629 L71.0817978,32.3912629 L71.0817978,34.525372 C71.0817978,36.5919496 71.1460674,36.7006868 72.1177528,36.7006868 L72.6408989,36.7006868 C73.2386517,36.7006868 74.2849438,36.7006868 74.7546067,34.1991606 L75,34.1991606" id="Fill-13" fill="#FFFFFF"></path>
                <path d="M79.5900096,32.3995505 L80.2948549,32.3995505 C81.846486,32.3995505 82.5130127,31.7558941 82.5130127,30.3878419 C82.5130127,28.7109476 81.6025426,28.3219307 80.1156752,28.3219307 C79.8846846,28.3219307 79.7567762,28.3354813 79.5900096,28.349032 L79.5900096,32.3995505 Z M83.8849244,30.2935519 C83.8849244,31.554328 82.8978172,32.3995505 81.3461861,32.5333633 C81.7309906,32.5604646 82.4487887,33.4593251 82.6668266,33.7676027 L83.7435236,35.2429309 C84.282142,35.9803127 84.987527,36.7047085 86,36.7047085 L86,37 L83.7181578,37 C83.5001199,36.8255352 83.1665867,36.5573451 82.5896498,35.7256732 L81.2565963,33.80769 C80.49994,32.7213787 80.2435836,32.7213787 79.7691893,32.7213787 L79.5900096,32.7213787 L79.5900096,34.6929999 C79.5900096,36.4099816 79.5770568,36.7047085 80.6537539,36.7047085 L81.0644639,36.7047085 L81.0644639,37 L77,37 L77,36.7047085 L77.2693092,36.7047085 C78.358959,36.7047085 78.358959,36.4099816 78.358959,34.6929999 L78.358959,30.3342039 C78.358959,28.3755687 78.2693692,28.4162207 77.064224,28.4162207 L77.064224,28.1209292 C77.9746942,28.0537405 79.3719717,28.0001025 80.2052651,28.0001025 C80.7562965,28.0001025 83.8849244,27.9464644 83.8849244,30.2935519 L83.8849244,30.2935519 Z" id="Fill-14" fill="#FFFFFF"></path>
                <path d="M87,33.9563697 L87.2739068,33.9563697 C87.376742,34.5594624 87.7534839,36.6851988 89.5228256,36.6851988 C90.5502162,36.6851988 91.200865,35.8849411 91.200865,34.9924521 C91.200865,33.759757 90.0706391,33.3002577 89.340221,32.9329897 C88.175877,32.3425994 87.057184,31.7654639 87.057184,30.1516937 C87.057184,29.02338 87.799135,28 89.0547814,28 C90.0480538,28 90.5271504,28.5771355 90.8015377,28.9184462 C91.0523787,28.5638807 91.0754445,28.3148012 91.0980298,28.1574006 L91.3378184,28.1574006 L91.3378184,30.4272828 L91.0980298,30.4272828 C90.7554061,28.8527246 89.8539164,28.3148012 89.0888996,28.3148012 C88.2441134,28.3148012 87.7876021,28.9576583 87.7876021,29.6397275 C87.7876021,30.6763623 88.7236905,31.1618189 89.6025949,31.5948085 C91.0639116,32.3160898 92,32.8540133 92,34.4942931 C92,35.7534978 91.3037001,37 89.6256607,37 C88.5982701,37 87.9130226,36.3963549 87.5478136,35.9108984 C87.4795771,36.0290869 87.365209,36.2256996 87.2739068,36.7509205 L87,36.7509205 L87,33.9563697" id="Fill-15" fill="#FFFFFF"></path>
                <path d="M93,28 L97,28 L97,28.2993132 L96.8143295,28.2993132 C95.6618344,28.2993132 95.6356287,28.4080504 95.6356287,30.2434185 L95.6356287,34.6615795 C95.6356287,36.4019458 95.6356287,36.7006868 96.7479788,36.7006868 L97,36.7006868 L97,37 L93,37 L93,36.7006868 L93.2514636,36.7006868 C94.3638138,36.7006868 94.3638138,36.4019458 94.3638138,34.6615795 L94.3638138,30.2434185 C94.3638138,28.4212133 94.337608,28.2993132 93.1851129,28.2993132 L93,28.2993132 L93,28" id="Fill-16" fill="#FFFFFF"></path>
                <path d="M97,30.1615795 L97.0368424,28 L104.950704,28 L105,30.1615795 L104.741065,30.1615795 C104.457741,28.2993132 103.890575,28.2993132 102.892197,28.2993132 L101.585587,28.2993132 L101.585587,34.6615795 C101.585587,36.4019458 101.585587,36.7006868 102.620808,36.7006868 L103.027632,36.7006868 L103.027632,37 L98.9474606,37 L98.9474606,36.7006868 L99.366738,36.7006868 C100.414413,36.7006868 100.401959,36.4019458 100.401959,34.6615795 L100.401959,28.2993132 L98.7009794,28.2993132 C97.6901472,28.2993132 97.5422585,28.8836322 97.2708698,30.1615795 L97,30.1615795" id="Fill-17" fill="#FFFFFF"></path>
                <g id="Group-21">
                    <mask id="mask-2" fill="white">
                        <use xlink:href="#path-1"></use>
                    </mask>
                    <g id="Clip-19"></g>
                    <path d="M112.79347,29.7051857 C112.881164,29.5672286 113.055502,29.2157286 113.055502,28.9895 C113.055502,28.4625143 112.569247,28.2991857 112.082466,28.2991857 L112.082466,28.0227429 L114.777352,28.0227429 L114.777352,28.2991857 C113.916164,28.4244571 113.566963,29.0021857 113.005616,29.9441 L111.15984,33.0706 L111.15984,34.1753143 C111.15984,35.8577571 111.147237,36.0586143 112.307215,36.0586143 L112.307215,36.3350571 L108.789475,36.3350571 L108.789475,36.0586143 C109.974658,36.0586143 109.962055,35.8704429 109.962055,34.1753143 L109.962055,33.1456571 L107.791758,29.5672286 C107.167922,28.5375714 107.030868,28.2991857 106.331941,28.2991857 L106.331941,28.0227429 L109.675342,28.0227429 L109.675342,28.2991857 C108.989018,28.2991857 108.739589,28.4371429 108.739589,28.7257429 C108.739589,28.9017571 108.802078,29.0021857 109.051507,29.4165857 L111.034863,32.6937286 L112.79347,29.7051857" id="Fill-18" fill="#FFFFFF" mask="url(#mask-2)"></path>
                    <path d="M5.65863014,37 C5.6386758,34.3502714 5.84714612,30.7713143 6.81755708,27.3535714 C8.6769863,20.8029857 15.4945434,19.8668857 15.4945434,19.8668857 L15.4945434,12.6925857 L6.50773973,16.7477857 L6.50773973,11.1333 L15.8043607,7.0781 L15.8043607,0.527514286 L0,7.38995714 L0,37 L5.65863014,37" id="Fill-20" fill="#FFFFFF" mask="url(#mask-2)"></path>
                </g>
                <path d="M17.2940492,12.3410191 L17.2940492,19.6190835 C17.2940492,19.6190835 23.7646277,20.5687226 25.5294215,27.2140518 C26.4504436,30.6812266 26.6483038,34.3119475 26.6288667,37 L32,37 L32,6.96169676 L17,0 L17,6.64532912 L25.8234708,10.7591809 L25.8234708,16.4548709 L17.2940492,12.3410191" id="Fill-22" fill="#FFFFFF"></path>
            </g>
        </g>
    </g>
</svg>